<?xml version="1.0" encoding="UTF-8" standalone="no"?>
<svg xmlns="http://www.w3.org/2000/svg" xmlns:xlink="http://www.w3.org/1999/xlink" width="309" height="140" viewBox="0 0 530 240" version="1.1">
    
    <title>logo_gazprom-export</title>
    <desc>Created with Sketch.</desc>
    <defs/>
    <g id="Page-1" stroke="none" stroke-width="1" fill="none" fill-rule="evenodd">
        <g id="logo_gazprom-export">
            <g transform="translate(61.000000, 17.000000)" id="Logo_Gazprom_Export">
                <g>
                    <g id="Page-1">
                        <g id="Artboard-1">
                            <g id="Logo_Gazprom_Export">
                                <g id="Group">
                                    <g id="Shape" fill="#0071B9">
                                        <path d="M100.382253,32.8361702 C96.6211604,15.9638298 86.894198,2.20638298 85.5972696,0 C83.5221843,3.11489362 75.7406143,15.3148936 71.8498294,28.6829787 C67.5699659,43.6085106 66.9215017,56.9765957 68.4778157,70.0851064 C69.9044369,83.193617 75.4812287,96.5617021 75.4812287,96.5617021 C78.4641638,103.570213 82.8737201,111.22766 85.7269625,114.861702 C89.8771331,109.410638 99.6040956,93.0574468 102.587031,71.7723404 C104.143345,60.0914894 104.273038,49.7085106 100.382253,32.8361702 L100.382253,32.8361702 L100.382253,32.8361702 Z M85.5972696,110.708511 C83.6518771,107.074468 80.7986348,100.325532 80.5392491,89.812766 C80.4095563,79.6893617 84.559727,70.993617 85.7269625,69.1765957 C86.7645051,70.993617 90.2662116,78.5212766 90.6552901,88.9042553 C90.9146758,99.1574468 87.5426621,107.074468 85.5972696,110.708511 L85.5972696,110.708511 L85.5972696,110.708511 Z M99.3447099,61.5191489 C99.2150171,68.0085106 98.4368601,74.7574468 97.3993174,78.7808511 C97.7883959,71.7723404 96.8805461,61.9085106 95.3242321,54.2510638 C93.7679181,46.593617 89.2286689,33.7446809 85.5972696,27.7744681 C82.225256,33.4851064 78.0750853,44.5170213 76,54.2510638 C73.7952218,63.8553191 73.7952218,75.6659574 73.7952218,79.1702128 C73.2764505,76.1851064 71.7201365,65.6723404 72.2389078,55.0297872 C72.6279863,46.3340426 74.5733788,37.3787234 75.7406143,33.2255319 C79.7610922,19.2085106 84.559727,10.3829787 85.4675768,9.08510638 C86.3754266,10.512766 92.4709898,21.2851064 95.5836177,32.706383 C98.8259386,44.1276596 99.4744027,55.0297872 99.3447099,61.5191489 L99.3447099,61.5191489 L99.3447099,61.5191489 Z"/>
                                        <path d="M92.0819113,118.885106 L62.9010239,118.885106 L62.9010239,138.612766 C62.9010239,138.612766 62.9010239,138.612766 63.0307167,138.482979 C69.9044369,131.604255 81.0580205,131.604255 88.0614334,138.482979 C94.9351536,145.361702 94.9351536,156.523404 88.0614334,163.531915 C88.0614334,163.531915 88.0614334,163.531915 87.9317406,163.661702 L87.9317406,163.661702 C87.9317406,163.661702 87.8020478,163.661702 87.8020478,163.791489 C80.9283276,170.670213 71.9795222,174.044681 62.9010239,174.044681 C53.8225256,174.044681 44.8737201,170.540426 38,163.661702 C25.8088737,151.461702 24.3822526,132.642553 33.7201365,119.014894 C35.0170648,117.197872 36.443686,115.380851 38,113.823404 C44.8737201,106.944681 53.9522184,103.440426 62.9010239,103.440426 L62.9010239,55.9382979 C28.1433447,55.9382979 0,84.1021277 0,118.885106 C0,153.538298 28.1433447,181.702128 62.9010239,181.702128 C81.0580205,181.702128 97.2696246,174.044681 108.812287,161.844681 L108.812287,118.885106 L92.0819113,118.885106 L92.0819113,118.885106 L92.0819113,118.885106 Z"/>
                                    </g>
                                    <g id="Shape" transform="translate(116.426621, 55.510638)" fill="#0071B9">
                                        <path d="M29.6075085,52.212766 C29.6075085,56.6255319 29.0887372,63.5042553 20.1399317,63.5042553 L9.63481229,63.5042553 C0.815699659,63.5042553 0.167235495,56.6255319 0.167235495,52.212766 L0.167235495,11.4595745 C0.167235495,7.04680851 0.686006826,0.168085106 9.63481229,0.168085106 L20.1399317,0.168085106 C28.9590444,0.168085106 29.6075085,7.04680851 29.6075085,11.4595745 L29.6075085,20.4148936 L16.8976109,20.4148936 L16.8976109,10.0319149 C16.8976109,8.99361702 16.1194539,7.95531915 14.9522184,7.95531915 C14.1740614,7.95531915 13.0068259,8.34468085 13.0068259,10.0319149 L13.0068259,53.2510638 C13.0068259,54.9382979 14.3037543,55.3276596 14.9522184,55.3276596 C16.1194539,55.3276596 16.8976109,54.2893617 16.8976109,53.2510638 L16.8976109,39.493617 L14.9522184,39.493617 L14.9522184,32.4851064 L29.4778157,32.4851064 L29.4778157,52.212766 L29.6075085,52.212766 L29.6075085,52.212766 Z"/>
                                        <path d="M48.6723549,39.7531915 L50.8771331,8.08510638 L51.6552901,8.08510638 L53.8600683,39.7531915 L48.6723549,39.7531915 L48.6723549,39.7531915 L48.6723549,39.7531915 Z M34.665529,63.5042553 L47.116041,63.5042553 L48.2832765,46.6319149 L54.2491468,46.6319149 L55.4163823,63.5042553 L67.8668942,63.5042553 L61.2525597,0.168085106 L41.2798635,0.168085106 L34.665529,63.5042553 L34.665529,63.5042553 L34.665529,63.5042553 Z"/>
                                        <path d="M72.5358362,55.587234 L84.5972696,8.08510638 L73.8327645,8.08510638 L73.8327645,0.168085106 L97.6962457,0.168085106 L97.6962457,8.08510638 L85.5051195,55.4574468 L98.4744027,55.4574468 L98.4744027,63.5042553 L72.5358362,63.5042553 L72.5358362,55.587234 L72.5358362,55.587234 Z"/>
                                        <path d="M117.020478,34.0425532 L117.020478,7.95531915 L118.706485,7.95531915 C120.133106,7.95531915 121.040956,9.12340426 121.040956,11.0702128 L121.040956,30.7978723 C121.040956,32.7446809 120.003413,33.912766 118.706485,33.912766 L117.020478,33.912766 L117.020478,34.0425532 L117.020478,34.0425532 Z M104.440273,63.5042553 L117.150171,63.5042553 L117.150171,41.9595745 L124.412969,41.9595745 C133.232082,41.9595745 133.880546,35.0808511 133.880546,30.6680851 L133.880546,11.4595745 C133.880546,7.04680851 133.361775,0.168085106 124.412969,0.168085106 L104.440273,0.168085106 L104.440273,63.5042553 L104.440273,63.5042553 L104.440273,63.5042553 Z"/>
                                        <path d="M152.945392,32.2255319 L152.945392,7.95531915 L154.631399,7.95531915 C155.928328,7.95531915 156.96587,9.12340426 156.96587,11.0702128 L156.96587,28.8510638 C156.96587,30.7978723 155.928328,31.9659574 154.631399,31.9659574 L152.945392,31.9659574 L152.945392,32.2255319 L152.945392,32.2255319 Z M171.232082,63.5042553 L165.006826,38.8446809 C169.546075,37.0276596 169.675768,32.8744681 169.675768,31.187234 L169.675768,11.4595745 C169.675768,7.04680851 169.156997,0.168085106 160.208191,0.168085106 L140.235495,0.168085106 L140.235495,63.6340426 L152.945392,63.6340426 L152.945392,40.1425532 L153.853242,40.1425532 L158.262799,63.6340426 L171.232082,63.6340426 L171.232082,63.5042553 L171.232082,63.5042553 Z"/>
                                        <path d="M194.706485,53.3808511 C194.706485,54.4191489 193.928328,55.4574468 192.761092,55.4574468 C191.982935,55.4574468 190.8157,54.9382979 190.8157,53.3808511 L190.8157,10.1617021 C190.8157,8.47446809 192.112628,8.08510638 192.761092,8.08510638 C193.928328,8.08510638 194.706485,9.12340426 194.706485,10.1617021 L194.706485,53.3808511 L194.706485,53.3808511 L194.706485,53.3808511 Z M177.976109,52.212766 C177.976109,56.6255319 178.494881,63.5042553 187.443686,63.5042553 L197.948805,63.5042553 C206.767918,63.5042553 207.416382,56.6255319 207.416382,52.212766 L207.416382,11.4595745 C207.416382,7.04680851 206.897611,0.168085106 197.948805,0.168085106 L187.443686,0.168085106 C178.624573,0.168085106 177.976109,7.04680851 177.976109,11.4595745 L177.976109,52.212766 L177.976109,52.212766 L177.976109,52.212766 Z"/>
                                        <path d="M247.102389,0.168085106 L263.573379,0.168085106 L263.573379,63.5042553 L250.863481,63.5042553 L250.863481,23.7893617 L250.474403,23.7893617 L243.989761,63.5042553 L233.744027,63.5042553 L227.259386,23.7893617 L226.870307,23.7893617 L226.870307,63.5042553 L214.16041,63.5042553 L214.16041,0.168085106 L230.631399,0.168085106 L238.931741,44.6851064 L247.102389,0.168085106 L247.102389,0.168085106 Z"/>
                                    </g>
                                    <rect id="Rectangle-path" fill="#0071B9" x="116.334471" y="138.353191" width="263.406143" height="43.6085106"/>
                                    <g id="Shape" transform="translate(129.395904, 145.361702)" fill="#FFFFFF">
                                        <path d="M14.4334471,1.16808511 L14.4334471,5.19148936 L5.22525597,5.19148936 L5.22525597,11.4212766 L13.5255973,11.4212766 L13.5255973,15.4446809 L5.22525597,15.4446809 L5.22525597,23.7510638 L14.4334471,23.7510638 L14.4334471,27.7744681 L0.167235495,27.7744681 L0.167235495,1.16808511 L14.4334471,1.16808511 L14.4334471,1.16808511 L14.4334471,1.16808511 Z"/>
                                        <path d="M46.8566553,1.16808511 L50.2286689,9.86382979 L53.8600683,1.16808511 L59.5665529,1.16808511 L52.9522184,14.1468085 L59.6962457,27.7744681 L54.1194539,27.7744681 L50.2286689,17.9106383 L46.2081911,27.7744681 L40.6313993,27.7744681 L46.9863481,14.1468085 L40.890785,1.16808511 L46.8566553,1.16808511 L46.8566553,1.16808511 L46.8566553,1.16808511 Z"/>
                                        <path d="M91.8600683,27.7744681 L86.8020478,27.7744681 L86.8020478,1.16808511 L96.3993174,1.16808511 C100.679181,1.16808511 103.40273,4.67234043 103.40273,8.95531915 C103.40273,13.3680851 100.679181,17.0021277 96.2696246,17.0021277 L91.8600683,17.0021277 L91.8600683,27.7744681 L91.8600683,27.7744681 L91.8600683,27.7744681 Z M91.8600683,12.9787234 L94.4539249,12.9787234 C97.0477816,12.9787234 98.2150171,11.5510638 98.2150171,8.95531915 C98.2150171,6.4893617 96.9180887,5.06170213 94.4539249,5.06170213 L91.8600683,5.06170213 L91.8600683,12.9787234 L91.8600683,12.9787234 L91.8600683,12.9787234 Z"/>
                                        <path d="M139.716724,0.778723404 C144.774744,0.778723404 148.276451,3.11489362 148.276451,9.86382979 L148.276451,19.4680851 C148.276451,26.2170213 144.904437,28.4234043 139.716724,28.4234043 C134.658703,28.4234043 131.027304,26.2170213 131.027304,19.4680851 L131.027304,9.86382979 C131.156997,3.11489362 134.658703,0.778723404 139.716724,0.778723404 L139.716724,0.778723404 L139.716724,0.778723404 Z M136.215017,9.21489362 L136.215017,20.1170213 C136.215017,22.8425532 137.25256,24.4 139.716724,24.4 C141.921502,24.4 143.088737,22.9723404 143.088737,20.1170213 L143.088737,9.34468085 C143.088737,6.4893617 141.921502,4.80212766 139.716724,4.80212766 C137.382253,4.80212766 136.215017,6.35957447 136.215017,9.21489362 L136.215017,9.21489362 L136.215017,9.21489362 Z"/>
                                        <path d="M181.348123,27.7744681 L176.290102,27.7744681 L176.290102,1.16808511 L186.795222,1.16808511 C190.8157,1.16808511 193.409556,4.28297872 193.409556,8.04680851 C193.409556,11.9404255 191.723549,14.0170213 189.389078,14.406383 C192.242321,15.0553191 193.020478,17.2617021 193.020478,19.2085106 L193.020478,22.5829787 C193.020478,25.0489362 193.020478,26.9957447 194.187713,26.9957447 L194.187713,27.7744681 L189.129693,27.7744681 C188.09215,26.9957447 187.962457,25.1787234 187.962457,23.3617021 L187.962457,20.2468085 C187.962457,18.1702128 187.313993,16.3531915 184.979522,16.3531915 L181.348123,16.3531915 L181.348123,27.7744681 L181.348123,27.7744681 L181.348123,27.7744681 Z M181.348123,12.7191489 L184.720137,12.7191489 C186.535836,12.7191489 188.351536,11.8106383 188.351536,8.82553191 C188.351536,5.97021277 186.924915,5.19148936 184.720137,5.19148936 L181.477816,5.19148936 L181.477816,12.7191489 L181.348123,12.7191489 L181.348123,12.7191489 Z"/>
                                        <path d="M231.539249,27.7744681 L226.481229,27.7744681 L226.481229,5.19148936 L220.255973,5.19148936 L220.255973,1.16808511 L237.764505,1.16808511 L237.764505,5.19148936 L231.539249,5.19148936 L231.539249,27.7744681 L231.539249,27.7744681 L231.539249,27.7744681 Z"/>
                                    </g>
                                </g>
                            </g>
                        </g>
                    </g>
                </g>
            </g>
        </g>
    </g>
</svg>
