<?xml version="1.0" encoding="utf-8"?>
<!-- Generator: Adobe Illustrator 21.1.0, SVG Export Plug-In . SVG Version: 6.00 Build 0)  -->
<svg version="1.1" id="Layer_1" xmlns="http://www.w3.org/2000/svg" xmlns:xlink="http://www.w3.org/1999/xlink" x="0px" y="0px"
	 viewBox="0 0 218 52" enable-background="new 0 0 218 52" xml:space="preserve">
<defs>
	<filter id="Adobe_OpacityMaskFilter" filterUnits="userSpaceOnUse" x="78.3" y="12.7" width="18.9" height="30.4">
		<feColorMatrix  type="matrix" values="1 0 0 0 0  0 1 0 0 0  0 0 1 0 0  0 0 0 1 0"/>
	</filter>
</defs>
<mask maskUnits="userSpaceOnUse" x="78.3" y="12.7" width="18.9" height="30.4" id="a">
	<path fill="#FFFFFF" filter="url(#Adobe_OpacityMaskFilter)" d="M0,51.9h218V0H0V51.9L0,51.9z"/>
</mask>
<g mask="url(#a)">
	<path fill="#867450" d="M90.3,22.9v-2.8c0-1.3-0.7-2.1-2.4-2.1c-1.7,0-2.6,0.9-2.6,2.1v15c0,1.7,1.3,2.7,2.6,2.7
		c1.2,0,2.5-0.9,2.5-2.6V32h-2.5v-5.2h9.4v15.6h-4.7l-0.3-2.5c-0.7,1.9-3.3,3.2-6.4,3.2c-3.6,0-7.5-2-7.5-8.4V20.8
		c0-5.2,2.9-8.2,9.5-8.2c6.6,0,9.4,3.1,9.4,8.2v2.1L90.3,22.9L90.3,22.9z"/>
</g>
<defs>
	<filter id="Adobe_OpacityMaskFilter_1_" filterUnits="userSpaceOnUse" x="99.3" y="13.3" width="21.8" height="29.1">
		<feColorMatrix  type="matrix" values="1 0 0 0 0  0 1 0 0 0  0 0 1 0 0  0 0 0 1 0"/>
	</filter>
</defs>
<mask maskUnits="userSpaceOnUse" x="99.3" y="13.3" width="21.8" height="29.1" id="b">
	<path fill="#FFFFFF" filter="url(#Adobe_OpacityMaskFilter_1_)" d="M0,51.9h218V0H0V51.9L0,51.9z"/>
</mask>
<g mask="url(#b)">
	<path fill="#867450" d="M106.6,13.3l2.6,15.3c0.2,1.1,0.6,5.3,0.8,8h0.1c0.3-2.7,0.5-6.9,0.8-8.1l2.9-15.3h7.3l-6.6,29.1H106
		l-6.6-29.1C99.3,13.3,106.6,13.3,106.6,13.3z"/>
</g>
<defs>
	<filter id="Adobe_OpacityMaskFilter_2_" filterUnits="userSpaceOnUse" x="134.2" y="12.7" width="18.9" height="30.4">
		<feColorMatrix  type="matrix" values="1 0 0 0 0  0 1 0 0 0  0 0 1 0 0  0 0 0 1 0"/>
	</filter>
</defs>
<mask maskUnits="userSpaceOnUse" x="134.2" y="12.7" width="18.9" height="30.4" id="c">
	<path fill="#FFFFFF" filter="url(#Adobe_OpacityMaskFilter_2_)" d="M0,51.9h218V0H0V51.9L0,51.9z"/>
</mask>
<g mask="url(#c)">
	<path fill="#867450" d="M146.2,22.9v-2.8c0-1.3-0.7-2.1-2.4-2.1c-1.7,0-2.6,0.9-2.6,2.1v15c0,1.7,1.3,2.7,2.6,2.7
		c1.2,0,2.5-0.9,2.5-2.6V32h-2.5v-5.2h9.4v15.6h-4.7l-0.3-2.5c-0.7,1.9-3.3,3.2-6.4,3.2c-3.6,0-7.5-2-7.5-8.4V20.8
		c0-5.2,2.9-8.2,9.5-8.2c6.6,0,9.4,3.1,9.4,8.2v2.1L146.2,22.9L146.2,22.9z"/>
</g>
<defs>
	<filter id="Adobe_OpacityMaskFilter_3_" filterUnits="userSpaceOnUse" x="156.6" y="12.7" width="19.4" height="30.4">
		<feColorMatrix  type="matrix" values="1 0 0 0 0  0 1 0 0 0  0 0 1 0 0  0 0 0 1 0"/>
	</filter>
</defs>
<mask maskUnits="userSpaceOnUse" x="156.6" y="12.7" width="19.4" height="30.4" id="d">
	<path fill="#FFFFFF" filter="url(#Adobe_OpacityMaskFilter_3_)" d="M0,51.9h218V0H0V51.9L0,51.9z"/>
</mask>
<g mask="url(#d)">
	<path fill="#867450" d="M176.1,33.9v-13c0-4.5-2.9-8.2-9.7-8.2c-6.8,0-9.8,3.6-9.8,8.2v13.1c0,5.8,3,9.2,9.7,9.2
		C173.1,43.1,176.1,39.7,176.1,33.9L176.1,33.9z M163.8,35.1V20.4c0-1.7,1.3-2.4,2.5-2.4c1.2,0,2.5,0.7,2.5,2.4v14.7
		c0,1.7-1.3,2.6-2.5,2.6C165.1,37.7,163.8,36.9,163.8,35.1z"/>
</g>
<defs>
	<filter id="Adobe_OpacityMaskFilter_4_" filterUnits="userSpaceOnUse" x="179.9" y="13.3" width="15.8" height="29.1">
		<feColorMatrix  type="matrix" values="1 0 0 0 0  0 1 0 0 0  0 0 1 0 0  0 0 0 1 0"/>
	</filter>
</defs>
<mask maskUnits="userSpaceOnUse" x="179.9" y="13.3" width="15.8" height="29.1" id="e">
	<path fill="#FFFFFF" filter="url(#Adobe_OpacityMaskFilter_4_)" d="M0,51.9h218V0H0V51.9L0,51.9z"/>
</mask>
<g mask="url(#e)">
	<path fill="#867450" d="M187.1,36.5h8.6v5.8h-15.8V13.3h7.2L187.1,36.5L187.1,36.5z"/>
</g>
<defs>
	<filter id="Adobe_OpacityMaskFilter_5_" filterUnits="userSpaceOnUse" x="198.8" y="13.3" width="19.2" height="29.1">
		<feColorMatrix  type="matrix" values="1 0 0 0 0  0 1 0 0 0  0 0 1 0 0  0 0 0 1 0"/>
	</filter>
</defs>
<mask maskUnits="userSpaceOnUse" x="198.8" y="13.3" width="19.2" height="29.1" id="f">
	<path fill="#FFFFFF" filter="url(#Adobe_OpacityMaskFilter_5_)" d="M0,51.9h218V0H0V51.9L0,51.9z"/>
</mask>
<g mask="url(#f)">
	<path fill="#867450" d="M208.9,13.3h-10v29.1h10c6.3,0,9.1-2.8,9.1-7.5V20.7C218,15.5,215.2,13.3,208.9,13.3z M207.8,37.1H206V18.5
		h1.8c2.1,0,3,0.8,3,3v12.6C210.8,36.3,209.9,37.1,207.8,37.1z"/>
</g>
<defs>
	<filter id="Adobe_OpacityMaskFilter_6_" filterUnits="userSpaceOnUse" x="0" y="0" width="53.4" height="51.9">
		<feColorMatrix  type="matrix" values="1 0 0 0 0  0 1 0 0 0  0 0 1 0 0  0 0 0 1 0"/>
	</filter>
</defs>
<mask maskUnits="userSpaceOnUse" x="0" y="0" width="53.4" height="51.9" id="g">
	<path fill="#FFFFFF" filter="url(#Adobe_OpacityMaskFilter_6_)" d="M0,51.9h218V0H0V51.9L0,51.9z"/>
</mask>
<g mask="url(#g)">
	<path fill="#867450" d="M53.4,25.9C53.4,11.6,41.5,0,26.7,0C12,0,0,11.6,0,25.9c0,14.3,12,25.9,26.7,25.9
		C41.5,51.9,53.4,40.3,53.4,25.9z M49.4,25.9c0,12.2-10.2,22-22.7,22S4,38.1,4,25.9c0-12.2,10.2-22,22.7-22S49.4,13.8,49.4,25.9z"/>
</g>
<defs>
	<filter id="Adobe_OpacityMaskFilter_7_" filterUnits="userSpaceOnUse" x="26.7" y="12.3" width="18.6" height="34">
		<feColorMatrix  type="matrix" values="1 0 0 0 0  0 1 0 0 0  0 0 1 0 0  0 0 0 1 0"/>
	</filter>
</defs>
<mask maskUnits="userSpaceOnUse" x="26.7" y="12.3" width="18.6" height="34" id="h">
	<path fill="#FFFFFF" filter="url(#Adobe_OpacityMaskFilter_7_)" d="M0,51.9h218V0H0V51.9L0,51.9z"/>
</mask>
<g mask="url(#h)">
	<path fill="#867450" d="M26.7,37l15.5-24.7c1.2,1.3,2.2,2.7,3.1,4.3L26.7,46.3C26.7,46.3,26.7,37,26.7,37z"/>
</g>
<defs>
	<filter id="Adobe_OpacityMaskFilter_8_" filterUnits="userSpaceOnUse" x="5.8" y="5.6" width="20.9" height="40.7">
		<feColorMatrix  type="matrix" values="1 0 0 0 0  0 1 0 0 0  0 0 1 0 0  0 0 0 1 0"/>
	</filter>
</defs>
<mask maskUnits="userSpaceOnUse" x="5.8" y="5.6" width="20.9" height="40.7" id="i">
	<path fill="#FFFFFF" filter="url(#Adobe_OpacityMaskFilter_8_)" d="M0,53.9h218V-1H0C0-1,0,53.9,0,53.9z"/>
</mask>
<g mask="url(#i)">
	<path fill="#867450" d="M26.7,37.1V5.6c-6.2,0-11.7,2.6-15.5,6.7L26.7,37.1z M26.7,46.3L8.2,16.6c-1.6,2.9-2.4,6.1-2.4,9.4
		C5.8,37.2,15.1,46.3,26.7,46.3L26.7,46.3z"/>
</g>
</svg>
