<svg xmlns="http://www.w3.org/2000/svg" fill="none" viewBox="0 0 117 31">
<path fill="#001275" d="m17.924 12.944-3.93-2.593-1.76-1.164a79.106 79.106 0 0 0-2.223 2.065c-1.744 1.689.323 2.713.323 2.713s1.292.794 3.362 2.27c2.07 1.474.594 3.147.359 3.36L1.993 30.314l1.446.324S18.272 17.742 18.43 17.593c3.078-2.957-.506-4.649-.506-4.649Z"/>
<path fill="#001275" d="M0 0v31h23.414V0H0Zm22.48 30.063H.933V.937h17.152C15.133 3.504 4.502 12.753 4.366 12.886c-3.074 2.953.507 4.642.507 4.642l.646.434 5.09 3.287a79.994 79.994 0 0 0 2.17-2.03c1.744-1.682-.323-2.71-.323-2.71s-1.292-.797-3.362-2.268c-2.07-1.472-.59-3.145-.358-3.362L19.926.937h2.554v29.126ZM34.4 18.205a5.892 5.892 0 0 1-2.147-1.102l.807-1.822a6.402 6.402 0 0 0 1.896 1.002c.726.255 1.49.387 2.26.389.934 0 1.615-.152 2.093-.45A1.365 1.365 0 0 0 40 15.027a1.16 1.16 0 0 0-.384-.891 2.693 2.693 0 0 0-.97-.551 21.904 21.904 0 0 0-1.614-.45 18.817 18.817 0 0 1-2.328-.688 3.766 3.766 0 0 1-1.528-1.073 2.889 2.889 0 0 1-.646-1.974 3.377 3.377 0 0 1 .569-1.903 3.829 3.829 0 0 1 1.705-1.362 6.895 6.895 0 0 1 2.796-.505c.763 0 1.523.097 2.261.288a6.236 6.236 0 0 1 1.938.83l-.736 1.822a7.327 7.327 0 0 0-1.725-.74 6.436 6.436 0 0 0-1.744-.252c-.924 0-1.61.157-2.057.47a1.443 1.443 0 0 0-.675 1.245 1.121 1.121 0 0 0 .387.882c.284.243.614.427.97.54.397.134.933.283 1.614.452.781.171 1.55.398 2.3.677.587.23 1.11.598 1.527 1.073.45.545.68 1.238.646 1.945a3.33 3.33 0 0 1-.569 1.893 3.833 3.833 0 0 1-1.714 1.355 6.96 6.96 0 0 1-2.804.506 9.595 9.595 0 0 1-2.819-.412ZM45.212 5.81h2.335v12.642h-2.335V5.809ZM52.64 18.205a5.892 5.892 0 0 1-2.147-1.102l.807-1.822a6.402 6.402 0 0 0 1.896 1.002c.726.255 1.49.387 2.26.389.933 0 1.615-.152 2.093-.45a1.365 1.365 0 0 0 .691-1.194 1.148 1.148 0 0 0-.384-.891 2.693 2.693 0 0 0-.97-.551 21.895 21.895 0 0 0-1.614-.45 18.82 18.82 0 0 1-2.328-.688 3.788 3.788 0 0 1-1.528-1.073 2.889 2.889 0 0 1-.646-1.974 3.377 3.377 0 0 1 .569-1.903 3.845 3.845 0 0 1 1.705-1.362 6.894 6.894 0 0 1 2.797-.505c.762 0 1.522.097 2.26.288a6.237 6.237 0 0 1 1.922.83l-.737 1.822a7.326 7.326 0 0 0-1.724-.74 6.435 6.435 0 0 0-1.744-.252c-.924 0-1.61.157-2.057.47a1.443 1.443 0 0 0-.675 1.245 1.121 1.121 0 0 0 .387.882c.284.243.613.427.97.54.395.133.934.283 1.614.452.781.171 1.55.398 2.3.677.59.228 1.117.596 1.537 1.073.45.545.68 1.238.645 1.945a3.33 3.33 0 0 1-.568 1.893 3.833 3.833 0 0 1-1.715 1.355 6.96 6.96 0 0 1-2.803.506 9.595 9.595 0 0 1-2.813-.412ZM66.181 7.796h-4.175V5.81h10.657v1.987h-4.147V18.44h-2.335V7.796ZM84.395 16.47v1.969H74.96V5.796h9.184V7.78h-6.846v3.28h6.075v1.946h-6.075v3.465h7.098ZM98.954 18.439l-.016-8.37-4.134 6.927H93.76l-4.134-6.807v8.25H87.4V5.796h1.921l4.996 8.373 4.91-8.373h1.921l.019 12.643h-2.212ZM113.296 15.518h-6.288l-1.24 2.917h-2.409l5.661-12.642h2.299L117 18.435h-2.445l-1.259-2.917Zm-.772-1.841-2.37-5.511-2.355 5.51h4.725ZM32.963 23.884v1.197h-.381v-3.06h.969a.873.873 0 0 1 .668.256c.168.185.255.43.242.68a.93.93 0 0 1-.229.678.9.9 0 0 1-.646.25h-.623Zm0-.324h.588a.497.497 0 0 0 .394-.155.65.65 0 0 0 .135-.438.65.65 0 0 0-.142-.444.474.474 0 0 0-.384-.156h-.591v1.193ZM36.816 22.02v2.176a.927.927 0 0 1-.252.68.93.93 0 0 1-.691.247.837.837 0 0 1-.89-.555.845.845 0 0 1-.043-.372V22.02h.38v2.159a.686.686 0 0 0 .133.46.515.515 0 0 0 .42.152.524.524 0 0 0 .426-.152.686.686 0 0 0 .13-.46v-2.16h.387ZM37.462 25.08v-3.06h.868a.87.87 0 0 1 .627.205.82.82 0 0 1 .21.612.65.65 0 0 1-.107.377.723.723 0 0 1-.29.256.562.562 0 0 1 .323.259.843.843 0 0 1 .122.47.883.883 0 0 1-.226.648.833.833 0 0 1-.646.237l-.881-.003Zm.371-1.74h.494a.406.406 0 0 0 .323-.136.507.507 0 0 0 .123-.357.52.52 0 0 0-.11-.37.46.46 0 0 0-.323-.113h-.488l-.019.976Zm0 .324v1.099h.523a.44.44 0 0 0 .346-.143.582.582 0 0 0 .129-.405c0-.366-.155-.55-.465-.55h-.533ZM40.216 24.75h1.198v.324h-1.582v-3.053h.384v2.73ZM42.306 25.08h-.384v-3.06h.384v3.06ZM44.938 24.108a1.12 1.12 0 0 1-.275.752.936.936 0 0 1-.707.263.867.867 0 0 1-.727-.35 1.508 1.508 0 0 1-.27-.95v-.554c-.019-.337.08-.67.277-.944a.917.917 0 0 1 .756-.346.875.875 0 0 1 .684.265c.176.213.268.483.262.759h-.372a.955.955 0 0 0-.155-.535.497.497 0 0 0-.403-.159.544.544 0 0 0-.478.243 1.275 1.275 0 0 0-.168.72v.56a1.35 1.35 0 0 0 .155.714.506.506 0 0 0 .455.246.548.548 0 0 0 .433-.149.932.932 0 0 0 .161-.535h.372ZM47.576 22.02h.385v2.17a.994.994 0 0 1-.223.686.766.766 0 0 1-.598.247.779.779 0 0 1-.604-.233.93.93 0 0 1-.216-.649h.384a.65.65 0 0 0 .123.396.389.389 0 0 0 .323.145.37.37 0 0 0 .323-.158.728.728 0 0 0 .12-.448l-.017-2.155ZM50.625 23.82c.023.345-.072.688-.268.972a.905.905 0 0 1-.756.324.917.917 0 0 1-.742-.324 1.452 1.452 0 0 1-.285-.93v-.574a1.534 1.534 0 0 1 .272-.972.898.898 0 0 1 .752-.347.91.91 0 0 1 .752.324c.195.277.291.611.275.95v.577Zm-.384-.535a1.3 1.3 0 0 0-.159-.723.536.536 0 0 0-.484-.237.541.541 0 0 0-.478.24c-.122.215-.18.46-.165.707v.548c-.014.249.042.497.162.716a.55.55 0 0 0 .484.243.536.536 0 0 0 .478-.227c.12-.21.176-.451.162-.693v-.574ZM51.671 25.08h-.38v-3.06h.38v3.06ZM54.365 25.08h-.385l-1.22-2.356v2.357h-.385v-3.06h.385l1.224 2.37v-2.37h.38v3.06ZM56.793 22.367h-.8v2.73h-.385v-2.73h-.8v-.324h1.985v.325ZM59.558 24.313a.46.46 0 0 0-.136-.357 1.25 1.25 0 0 0-.446-.237 2.066 2.066 0 0 1-.494-.243.89.89 0 0 1-.255-.288.824.824 0 0 1-.084-.373.8.8 0 0 1 .54-.786.86.86 0 0 1 .348-.05.967.967 0 0 1 .478.12.844.844 0 0 1 .323.324c.075.145.114.306.113.47h-.387a.65.65 0 0 0-.136-.428.492.492 0 0 0-.39-.156.473.473 0 0 0-.36.13.497.497 0 0 0-.128.366.422.422 0 0 0 .139.324c.124.107.269.186.426.234.243.065.465.193.646.37.133.158.202.362.193.57a.78.78 0 0 1-.239.596.93.93 0 0 1-.646.224c-.17.002-.339-.038-.49-.117a.889.889 0 0 1-.356-.324.927.927 0 0 1-.129-.486h.365a.598.598 0 0 0 .158.444.584.584 0 0 0 .43.155.509.509 0 0 0 .381-.13.488.488 0 0 0 .136-.352ZM62.274 22.367h-.801v2.73h-.385v-2.73h-.8v-.324h1.986v.325ZM64.69 23.82c.023.345-.07.687-.266.972a1.015 1.015 0 0 1-1.158.245 1.014 1.014 0 0 1-.34-.245 1.453 1.453 0 0 1-.284-.93v-.574a1.557 1.557 0 0 1 .268-.972 1.004 1.004 0 0 1 1.505 0c.197.275.294.61.274.95v.554Zm-.382-.535a1.34 1.34 0 0 0-.158-.723.608.608 0 0 0-.969 0c-.123.214-.18.46-.165.707v.548a1.3 1.3 0 0 0 .162.716.611.611 0 0 0 .969 0 1.3 1.3 0 0 0 .161-.694v-.554ZM67.237 24.108c.003.276-.095.543-.274.752a.935.935 0 0 1-.707.263.873.873 0 0 1-.73-.35 1.528 1.528 0 0 1-.268-.95v-.554c-.02-.338.078-.671.277-.944a.917.917 0 0 1 .756-.346.875.875 0 0 1 .685.265c.178.217.271.491.261.772h-.387a.955.955 0 0 0-.155-.535.495.495 0 0 0-.404-.159.546.546 0 0 0-.478.243 1.275 1.275 0 0 0-.168.72v.56a1.35 1.35 0 0 0 .155.714.505.505 0 0 0 .456.246.55.55 0 0 0 .432-.168.933.933 0 0 0 .162-.535l.387.006ZM68.484 23.664l-.3.363v1.047h-.385v-3.053h.385v1.478l.252-.324.82-1.145h.458l-.988 1.349 1.066 1.711h-.459l-.85-1.426ZM72.618 23.729h-1.03v1.352h-.385v-3.06h1.589v.324h-1.205v1.05h1.03v.334ZM73.706 25.08h-.381v-3.06h.38v3.06ZM76.412 25.08h-.384l-1.22-2.356v2.357h-.385v-3.06h.384l1.224 2.37v-2.37h.381v3.06ZM78.58 24.28h-1.031l-.236.8h-.394l.969-3.06h.323l.969 3.06h-.391l-.21-.8Zm-.931-.324h.827l-.417-1.39-.41 1.39ZM81.663 25.08h-.387l-1.221-2.356v2.357h-.384v-3.06h.384l1.227 2.37v-2.37h.381v3.06ZM84.289 24.108a1.12 1.12 0 0 1-.275.752.93.93 0 0 1-.707.263.866.866 0 0 1-.727-.35 1.508 1.508 0 0 1-.27-.95v-.554c-.019-.337.08-.67.277-.944a.918.918 0 0 1 .733-.346.872.872 0 0 1 .685.265c.186.213.287.488.284.772H83.9a.955.955 0 0 0-.155-.535.492.492 0 0 0-.403-.159.543.543 0 0 0-.478.243 1.275 1.275 0 0 0-.168.72v.56a1.35 1.35 0 0 0 .155.714.505.505 0 0 0 .455.246.547.547 0 0 0 .433-.149.932.932 0 0 0 .161-.535l.388-.013ZM85.258 25.08h-.381v-3.06h.38v3.06ZM87.418 24.28h-1.03l-.239.8h-.394l.969-3.06h.323l.969 3.06h-.394l-.204-.8Zm-.93-.324h.83l-.416-1.39-.414 1.39ZM88.894 24.75h1.208v.324h-1.58v-3.053h.385l-.013 2.73ZM93.525 24.108c.003.276-.095.543-.274.752a.936.936 0 0 1-.708.263.873.873 0 0 1-.73-.35 1.528 1.528 0 0 1-.268-.95v-.554c-.02-.338.08-.671.278-.944a.918.918 0 0 1 .756-.346.875.875 0 0 1 .684.265c.177.217.27.491.262.772h-.388a.929.929 0 0 0-.158-.535.484.484 0 0 0-.4-.159.547.547 0 0 0-.481.243 1.3 1.3 0 0 0-.165.72v.56a1.35 1.35 0 0 0 .155.714.505.505 0 0 0 .455.246.537.537 0 0 0 .43-.149.929.929 0 0 0 .165-.535l.387-.013ZM96.07 23.82c.022.345-.071.687-.265.972a.911.911 0 0 1-.756.324.924.924 0 0 1-.746-.324 1.472 1.472 0 0 1-.284-.93v-.574a1.534 1.534 0 0 1 .271-.972 1.004 1.004 0 0 1 1.505 0c.196.276.293.61.275.95v.554Zm-.384-.535a1.301 1.301 0 0 0-.159-.723.535.535 0 0 0-.484-.237.544.544 0 0 0-.478.24c-.12.215-.178.46-.165.707v.548a1.3 1.3 0 0 0 .165.716.543.543 0 0 0 .484.243.531.531 0 0 0 .475-.227c.12-.21.175-.451.162-.693v-.574ZM97.626 23.842h-.536v1.239h-.384v-3.06h.853a.895.895 0 0 1 .678.236.925.925 0 0 1 .232.684.953.953 0 0 1-.126.496.798.798 0 0 1-.352.324l.591 1.297v.026h-.406l-.55-1.242Zm-.536-.324h.465a.499.499 0 0 0 .385-.159.579.579 0 0 0 .142-.415c0-.392-.178-.59-.53-.59h-.462v1.164ZM99.406 23.885v1.196h-.381v-3.06h.969a.874.874 0 0 1 .665.256 1.088 1.088 0 0 1 0 1.358.9.9 0 0 1-.646.25h-.607Zm0-.325h.59a.496.496 0 0 0 .392-.155.65.65 0 0 0 .135-.438.649.649 0 0 0-.142-.444.47.47 0 0 0-.384-.165h-.591v1.202ZM103.427 23.82c.022.345-.072.688-.268.972a.907.907 0 0 1-.756.324.92.92 0 0 1-.743-.324 1.47 1.47 0 0 1-.284-.93v-.574a1.536 1.536 0 0 1 .271-.972.902.902 0 0 1 .753-.347.906.906 0 0 1 .752.324c.194.277.291.611.275.95v.577Zm-.385-.535a1.291 1.291 0 0 0-.158-.723.538.538 0 0 0-.484-.237.543.543 0 0 0-.478.24c-.124.214-.181.46-.165.707v.548c-.015.249.041.497.161.716a.552.552 0 0 0 .485.243.538.538 0 0 0 .478-.227c.119-.21.175-.451.161-.693v-.574ZM104.983 23.842h-.536v1.239h-.384v-3.06h.852a.896.896 0 0 1 .679.236.925.925 0 0 1 .229.684.946.946 0 0 1-.123.496.793.793 0 0 1-.352.324l.588 1.297v.026h-.41l-.543-1.242Zm-.536-.324h.465a.504.504 0 0 0 .384-.159.593.593 0 0 0 .143-.415c0-.392-.178-.59-.533-.59h-.459v1.164ZM107.803 24.28h-1.031l-.239.8h-.39l.968-3.06h.323l.969 3.06h-.394l-.206-.8Zm-.931-.324h.83l-.416-1.39-.414 1.39ZM110.405 22.367h-.8v2.73h-.385v-2.73h-.801v-.324h1.986v.325ZM111.297 25.08h-.381v-3.06h.381v3.06ZM114 23.82c.023.345-.072.688-.268.972a.912.912 0 0 1-.756.324.92.92 0 0 1-.743-.324 1.476 1.476 0 0 1-.284-.93v-.574a1.536 1.536 0 0 1 .271-.972.902.902 0 0 1 .753-.347.906.906 0 0 1 .752.324c.195.277.291.611.275.95v.577Zm-.385-.535a1.291 1.291 0 0 0-.158-.723.53.53 0 0 0-.484-.237.543.543 0 0 0-.478.24c-.124.214-.181.46-.165.707v.548c-.014.249.042.497.162.716a.549.549 0 0 0 .484.243.538.538 0 0 0 .478-.227c.119-.21.175-.451.161-.693v-.574ZM116.622 25.08h-.384l-1.221-2.356v2.357h-.371v-3.06h.384l1.224 2.37v-2.37h.381l-.013 3.06Z"/>
</svg>