<?xml version="1.0" encoding="utf-8"?>
<!-- Generator: Adobe Illustrator 25.0.0, SVG Export Plug-In . SVG Version: 6.00 Build 0)  -->
<svg version="1.1" id="Слой_1" xmlns="http://www.w3.org/2000/svg" xmlns:xlink="http://www.w3.org/1999/xlink" x="0px" y="0px"
	 viewBox="0 0 150 150" style="enable-background:new 0 0 150 150;" xml:space="preserve">
<style type="text/css">
	.st0{fill:#00BCF1;}
</style>
<path class="st0" d="M142.6,102.4c-2.7,7.6-6.7,13.9-11.5,19.7c-0.5,0.7-1.9,0.9-2.9,0.9c-17.4,0-34.8,0.3-52.1,0
	c-23.6-0.4-43.6-19.7-45.8-43.2c-2.7-28.4,20-52.9,48.4-52.6c16.2,0.2,32.3,0.1,48.5,0c2.4,0,4.1,0.6,5.4,2.7
	c3.4,5.7,7,11.4,10.4,17.1c-0.3,0.3-0.6,0.6-0.9,0.9c-1.9,0-3.8,0-5.7,0c-19.2,0-38.4-0.1-57.6,0C67,47.9,58.2,53.2,53.1,64
	c-8.3,17.5,4.7,38.1,24.4,38.4c19.8,0.3,39.6,0.1,59.4,0.1C138.7,102.4,140.4,102.4,142.6,102.4z M131.2,109.2c-1.7,0-3,0-4.3,0
	c-16.6,0-33.3,0.1-49.9-0.1c-3.3,0-6.8-0.6-9.9-1.7C51.3,102.2,41.5,86,44.2,69.9C47,53.1,60.9,41.1,77.9,41c16.5,0,33,0,49.6,0
	c1.2,0,2.5,0,3.9,0c-2-5.3-4.9-7.3-10.3-7.1C106.9,34.3,92.6,34,78.4,34c-23.1,0.1-41.6,18.6-41.5,41.3
	c0.1,22.6,18.7,40.7,41.7,40.8c14.5,0,28.9,0,43.4,0C127.9,116.1,128.6,115.6,131.2,109.2z"/>
<path class="st0" d="M146.7,88.3c-1.2,0.1-2.2,0.2-3.3,0.2c-21.6,0-43.1,0-64.7,0c-6,0-10.5-2.4-13.1-7.9
	c-2.5-5.4-1.5-10.4,2.3-14.8c2.6-3,6-4.3,10-4.3c22,0,44.1,0,66.1,0.1c1,0,2.7,1.2,2.9,2C148.4,71.9,148.3,80,146.7,88.3z"/>
<path class="st0" d="M124.4,20.1c-5.8,0.5-10.5-0.1-15.5-3C67.2-7.2,16.2,18.7,9,63.9c-5.5,34.3,14.6,66.2,47.7,75.7
	c18.3,5.2,36,3.1,52.2-6.8c4.9-3,9.6-3.2,14.8-2.9c-12.2,13.7-39.4,23.5-65.9,17.2c-30.5-7.3-53.5-33.6-56.5-64.6
	c-3.1-31.7,14.4-62.1,43.1-75C73.7-5.6,105.7,2.1,124.4,20.1z"/>
</svg>
